<svg height="500" viewBox="0 0 388.99 500" width="388.99" xmlns="http://www.w3.org/2000/svg"><path fill="#735622" d="m68 328.53c.11.3 2.7 7.47 4.2 11a163.76 163.76 0 1 0 150.8-227.37 167.33 167.33 0 0 0 -64.59 12.84c-15.91 6.73-42.83 24.06-58.6 40.32l-.09.09v-134.67h226.28c8.23-.09 8.23-11.58 8.23-15.36s-.02-15.28-8.23-15.38h-244.69a10.75 10.75 0 0 0 -10.78 10.67v189.59c0 6.12 7.62 10.53 14.69 12.05 13.83 2.95 17-1.47 20.41-6.14l.45-.62c5.17-7.68 21.32-23.94 21.48-24.1a133.82 133.82 0 1 1 189.75 188.74c-24.85 24.85-59.55 39.09-95.22 39.09a129.26 129.26 0 0 1 -67.45-18.62l.08-115.27c0-15.37 6.67-32.08 17.84-44.7a65.4 65.4 0 0 1 49.57-22.37 69 69 0 0 1 48.87 19.87 66.71 66.71 0 0 1 19.91 47.72c0 38.53-30.29 68.7-69 68.7-7.46 0-21-3.29-21.57-3.43-7.8-2.32-11.13 8.52-12.22 12.09-4.2 13.74 2.11 16.47 3.42 16.87a93.79 93.79 0 0 0 31.31 4.6 99.14 99.14 0 0 0 99-99.05c0-54.18-44.38-98.26-98.94-98.26a100.12 100.12 0 0 0 -70.67 28.76c-18 17.66-28.26 41.21-28.26 64.6v.58c-.08 2.92-.14 72-.16 94.7l-.1-.11c-10.26-11.36-20.4-28.75-27.13-46.52-2.63-7-8.59-5.73-16.71-3.23-3.55 1.09-14.35 4.42-12 12.22zm116.29-27.08c0 3.31 3.07 6.21 4.88 7.95l.57.55c3.11 3.05 6.07 4.6 8.79 4.6a6.12 6.12 0 0 0 4.15-1.52c1.37-1.27 16.84-17 18.32-18.45l17.26 17.2a7.27 7.27 0 0 0 5.36 2.76c2.76 0 5.76-1.64 8.93-4.87 7.44-7.61 3.72-11.71 1.92-13.69l-17.47-17.49 18.24-18.37c4-4.33.46-8.93-3.06-12.45-5.11-5.12-10-6.44-13.21-3.52l-18.14 18.16-18.36-18.31a5 5 0 0 0 -3.54-1.42c-2.44 0-5.34 1.65-8.6 4.91-5.64 5.64-6.85 9.54-3.91 12.65l18.34 18.28-18.23 18.27a6.7 6.7 0 0 0 -2.24 4.76zm40-247.88c-29.32 0-60.5 5.92-83.41 15.83a6.55 6.55 0 0 0 -4.24 5.69c-.3 2.61.41 6 2.16 10.52 1.42 3.63 5.19 13.28 12.5 10.49 23.45-8.94 49.37-13.87 73-13.87a197 197 0 0 1 77.11 15.57c19.41 8.21 37.73 20.08 57.64 37.33a7 7 0 0 0 4.58 1.9c3.88 0 7.61-3.82 10.79-7.39 5.32-6 9-10.92 3.73-15.88-19-18-39.85-31.48-65.57-42.35a225.37 225.37 0 0 0 -88.32-17.84zm158 362c-3.52-3.52-6.52-5.6-9.16-6.35a6.63 6.63 0 0 0 -6.9 1.65l-1.74 1.73a197.64 197.64 0 0 1 -279.77 0c-18.93-18.94-33.2-40.09-42.4-62.89a214.06 214.06 0 0 1 -12.93-44.41c-.09-.51-.16-.92-.22-1.21-1.23-6.47-7.19-6.92-15.74-5.62-3.56.53-14.43 2.21-13.36 10v.17a227.21 227.21 0 0 0 385.17 124.78c.05-.05 1.19-1.18 1.82-1.86 2.29-2.5 4.29-6.88-4.83-15.97z"/></svg>
